<svg id="Слой_1" xmlns="http://www.w3.org/2000/svg" xmlns:xlink="http://www.w3.org/1999/xlink" viewBox="0 0 77.2 77.1"><style>.st0{fill:#a6dae8}.st1{clip-path:url(#SVGID_2_);fill:#0a2a42}.st2{clip-path:url(#SVGID_4_);fill:#414c57}.st3{clip-path:url(#SVGID_6_);fill:#e6e6e6}.st4{clip-path:url(#SVGID_8_);fill:#e3e3e3}.st5,.st6{clip-path:url(#SVGID_10_);fill:#657687}.st6{clip-path:url(#SVGID_12_)}.st7{clip-path:url(#SVGID_14_)}.st7,.st8,.st9{fill:#657687}.st8{clip-path:url(#SVGID_16_)}.st9{clip-path:url(#SVGID_18_)}.st10{clip-path:url(#SVGID_20_)}.st10,.st11,.st12{fill:#657687}.st11{clip-path:url(#SVGID_22_)}.st12{clip-path:url(#SVGID_24_)}.st13{clip-path:url(#SVGID_26_)}.st13,.st14,.st15{fill:#657687}.st14{clip-path:url(#SVGID_28_)}.st15{clip-path:url(#SVGID_30_)}.st16{clip-path:url(#SVGID_32_)}.st16,.st17,.st18{fill:#657687}.st17{clip-path:url(#SVGID_34_)}.st18{clip-path:url(#SVGID_36_)}.st19{clip-path:url(#SVGID_38_);fill:#fff}.st20,.st21{clip-path:url(#SVGID_40_);fill:#fff}.st21{clip-path:url(#SVGID_42_)}.st22{clip-path:url(#SVGID_44_);fill:#657687}.st23{clip-path:url(#SVGID_46_);fill:#fff}.st24,.st25{clip-path:url(#SVGID_48_);fill:#fff}.st25{clip-path:url(#SVGID_50_)}.st26,.st27{clip-path:url(#SVGID_52_);fill:#fff}.st27{clip-path:url(#SVGID_54_)}.st28,.st29{clip-path:url(#SVGID_56_);fill:#fff}.st29{clip-path:url(#SVGID_58_)}.st30,.st31{clip-path:url(#SVGID_60_);fill:#fff}.st31{clip-path:url(#SVGID_62_)}.st32,.st33{clip-path:url(#SVGID_64_);fill:#fff}.st33{clip-path:url(#SVGID_66_)}.st34,.st35{clip-path:url(#SVGID_68_);fill:#fff}.st35{clip-path:url(#SVGID_70_)}.st36,.st37{clip-path:url(#SVGID_72_);fill:#fff}.st37{clip-path:url(#SVGID_74_)}.st38{clip-path:url(#SVGID_76_);fill:#f7cb98}.st39{clip-path:url(#SVGID_78_)}.st40,.st41{clip-path:url(#SVGID_80_);fill:#fceddb}.st41{clip-path:url(#SVGID_82_)}.st42{clip-path:url(#SVGID_84_);fill:#f4f4f4}.st43{clip-path:url(#SVGID_86_);fill:#404040}.st44,.st45{clip-path:url(#SVGID_78_);fill:#68a0b0}.st45{fill:#fff}.st46{fill:#404040}</style><path class="st0" d="M77 38.5C77 59.8 59.8 77 38.5 77S0 59.8 0 38.5 17.2 0 38.5 0 77 17.2 77 38.5"/><defs><path id="SVGID_1_" d="M77.1 38.5C77.1 59.8 59.9 77 38.6 77S.1 59.8.1 38.5 17.3 0 38.6 0s38.5 17.2 38.5 38.5"/></defs><clipPath id="SVGID_2_"><use xlink:href="#SVGID_1_" overflow="visible"/></clipPath><path class="st1" d="M49.7 9.1l-23.5.2c-1.8 0-3.2 1.4-3.2 3.2l.2 35.1c0 1.8 1.4 3.2 3.2 3.2l23.5-.2c1.8 0 3.2-1.4 3.2-3.2l-.2-35.1c0-1.8-1.4-3.2-3.2-3.2z"/><defs><path id="SVGID_3_" d="M77.2 38.2C77.4 59.5 60.3 76.9 39 77 17.7 77.1.4 60.1.2 38.8S17.2.1 38.5 0s38.6 16.9 38.7 38.2"/></defs><clipPath id="SVGID_4_"><use xlink:href="#SVGID_3_" overflow="visible"/></clipPath><path transform="rotate(-90.395 37.94 18.255)" class="st2" d="M33.5 3.3h8.9v29.9h-8.9z"/><defs><path id="SVGID_5_" d="M77.2 38.2C77.4 59.5 60.3 76.9 39 77 17.7 77.1.4 60.1.2 38.8S17.2.1 38.5 0s38.6 16.9 38.7 38.2"/></defs><clipPath id="SVGID_6_"><use xlink:href="#SVGID_5_" overflow="visible"/></clipPath><path transform="matrix(-.00691 -1 1 -.00691 19.947 56.423)" class="st3" d="M35.1 5.9h5.8v24.8h-5.8z"/><defs><path id="SVGID_7_" d="M77.1 38.5C77.1 59.8 59.9 77 38.6 77S.1 59.8.1 38.5 17.3 0 38.6 0s38.5 17.2 38.5 38.5"/></defs><clipPath id="SVGID_8_"><use xlink:href="#SVGID_7_" overflow="visible"/></clipPath><path class="st4" d="M33.4 11.7l9.3-.1v-.7l-9.3.1z"/><defs><path id="SVGID_9_" d="M77.1 38.5C77.1 59.8 59.9 77 38.6 77S.1 59.8.1 38.5 17.3 0 38.6 0s38.5 17.2 38.5 38.5"/></defs><clipPath id="SVGID_10_"><use xlink:href="#SVGID_9_" overflow="visible"/></clipPath><path class="st5" d="M29.1 25.8H27c-.7 0-1.3.7-1.3 1.5s.6 1.5 1.3 1.5h2.1c.7 0 1.3-.7 1.3-1.5s-.6-1.5-1.3-1.5z"/><defs><path id="SVGID_11_" d="M77.1 38.5C77.1 59.8 59.9 77 38.6 77S.1 59.8.1 38.5 17.3 0 38.6 0s38.5 17.2 38.5 38.5"/></defs><clipPath id="SVGID_12_"><use xlink:href="#SVGID_11_" overflow="visible"/></clipPath><path class="st6" d="M35.5 25.8h-2.1c-.7 0-1.3.7-1.3 1.5s.6 1.5 1.3 1.5h2.1c.7 0 1.3-.7 1.3-1.5s-.5-1.5-1.3-1.5z"/><defs><path id="SVGID_13_" d="M77.1 38.5C77.1 59.8 59.9 77 38.6 77S.1 59.8.1 38.5 17.3 0 38.6 0s38.5 17.2 38.5 38.5"/></defs><clipPath id="SVGID_14_"><use xlink:href="#SVGID_13_" overflow="visible"/></clipPath><path class="st7" d="M42 25.8h-2.1c-.7 0-1.3.7-1.3 1.5s.6 1.5 1.3 1.5H42c.7 0 1.3-.7 1.3-1.5s-.6-1.5-1.3-1.5z"/><defs><path id="SVGID_15_" d="M77.1 38.5C77.1 59.8 59.9 77 38.6 77S.1 59.8.1 38.5 17.3 0 38.6 0s38.5 17.2 38.5 38.5"/></defs><clipPath id="SVGID_16_"><use xlink:href="#SVGID_15_" overflow="visible"/></clipPath><path class="st8" d="M48.5 25.8h-2.1c-.7 0-1.3.7-1.3 1.5s.6 1.5 1.3 1.5h2.1c.7 0 1.3-.7 1.3-1.5s-.6-1.5-1.3-1.5z"/><defs><path id="SVGID_17_" d="M77.1 38.5C77.1 59.8 59.9 77 38.6 77S.1 59.8.1 38.5 17.3 0 38.6 0s38.5 17.2 38.5 38.5"/></defs><clipPath id="SVGID_18_"><use xlink:href="#SVGID_17_" overflow="visible"/></clipPath><path class="st9" d="M28.2 31.3h-.8c-.9 0-1.6.9-1.6 2s.8 2 1.7 2h.8c.9 0 1.6-.9 1.6-2s-.8-2-1.7-2z"/><defs><path id="SVGID_19_" d="M77.1 38.5C77.1 59.8 59.9 77 38.6 77S.1 59.8.1 38.5 17.3 0 38.6 0s38.5 17.2 38.5 38.5"/></defs><clipPath id="SVGID_20_"><use xlink:href="#SVGID_19_" overflow="visible"/></clipPath><path class="st10" d="M34.7 31.2h-.9c-.9 0-1.6.9-1.6 2s.8 2 1.7 2h.9c.9 0 1.6-.9 1.6-2s-.8-2-1.7-2z"/><defs><path id="SVGID_21_" d="M77.1 38.5C77.1 59.8 59.9 77 38.6 77S.1 59.8.1 38.5 17.3 0 38.6 0s38.5 17.2 38.5 38.5"/></defs><clipPath id="SVGID_22_"><use xlink:href="#SVGID_21_" overflow="visible"/></clipPath><path class="st11" d="M41.2 31.2h-.8c-.9 0-1.6.9-1.6 2s.8 2 1.7 2h.8c.9 0 1.6-.9 1.6-2s-.7-2-1.7-2z"/><defs><path id="SVGID_23_" d="M77.1 38.5C77.1 59.8 59.9 77 38.6 77S.1 59.8.1 38.5 17.3 0 38.6 0s38.5 17.2 38.5 38.5"/></defs><clipPath id="SVGID_24_"><use xlink:href="#SVGID_23_" overflow="visible"/></clipPath><path class="st12" d="M47.7 31.2h-.8c-.9 0-1.6.9-1.6 2s.8 2 1.7 2h.8c.9 0 1.6-.9 1.6-2 0-1.2-.7-2.1-1.7-2z"/><defs><path id="SVGID_25_" d="M77.1 38.5C77.1 59.8 59.9 77 38.6 77S.1 59.8.1 38.5 17.3 0 38.6 0s38.5 17.2 38.5 38.5"/></defs><clipPath id="SVGID_26_"><use xlink:href="#SVGID_25_" overflow="visible"/></clipPath><path class="st13" d="M28.3 37h-.9c-.9 0-1.6.9-1.6 2s.8 2 1.7 2h.8c.9 0 1.6-.9 1.6-2s-.7-2-1.6-2z"/><defs><path id="SVGID_27_" d="M77.1 38.5C77.1 59.8 59.9 77 38.6 77S.1 59.8.1 38.5 17.3 0 38.6 0s38.5 17.2 38.5 38.5"/></defs><clipPath id="SVGID_28_"><use xlink:href="#SVGID_27_" overflow="visible"/></clipPath><path class="st14" d="M34.7 37h-.9c-.9 0-1.6.9-1.6 2s.8 2 1.7 2h.9c.9 0 1.6-.9 1.6-2s-.7-2-1.7-2z"/><defs><path id="SVGID_29_" d="M77.1 38.5C77.1 59.8 59.9 77 38.6 77S.1 59.8.1 38.5 17.3 0 38.6 0s38.5 17.2 38.5 38.5"/></defs><clipPath id="SVGID_30_"><use xlink:href="#SVGID_29_" overflow="visible"/></clipPath><path class="st15" d="M41.3 36.9h-.8c-.9 0-1.6.9-1.6 2s.8 2 1.7 2h.8c.9 0 1.6-.9 1.6-2-.1-1.1-.8-2-1.7-2z"/><defs><path id="SVGID_31_" d="M77.1 38.5C77.1 59.8 59.9 77 38.6 77S.1 59.8.1 38.5 17.3 0 38.6 0s38.5 17.2 38.5 38.5"/></defs><clipPath id="SVGID_32_"><use xlink:href="#SVGID_31_" overflow="visible"/></clipPath><path class="st16" d="M28.4 42.8h-.9c-.9 0-1.6.9-1.6 2s.8 2 1.7 2h.8c.9 0 1.6-.9 1.6-2-.1-1.1-.8-2-1.6-2z"/><defs><path id="SVGID_33_" d="M77.1 38.5C77.1 59.8 59.9 77 38.6 77S.1 59.8.1 38.5 17.3 0 38.6 0s38.5 17.2 38.5 38.5"/></defs><clipPath id="SVGID_34_"><use xlink:href="#SVGID_33_" overflow="visible"/></clipPath><path class="st17" d="M34.8 42.7h-.9c-.9 0-1.6.9-1.6 2s.8 2 1.7 2h.9c.9 0 1.6-.9 1.6-2s-.8-2-1.7-2z"/><defs><path id="SVGID_35_" d="M77.1 38.5C77.1 59.8 59.9 77 38.6 77S.1 59.8.1 38.5 17.3 0 38.6 0s38.5 17.2 38.5 38.5"/></defs><clipPath id="SVGID_36_"><use xlink:href="#SVGID_35_" overflow="visible"/></clipPath><path class="st18" d="M41.2 42.7h-.8c-.9 0-1.6.9-1.6 2s.8 2 1.7 2h.9c.9 0 1.6-.9 1.6-2s-.8-2-1.8-2z"/><defs><path id="SVGID_37_" d="M77.1 38.5C77.1 59.8 59.9 77 38.6 77S.1 59.8.1 38.5 17.3 0 38.6 0s38.5 17.2 38.5 38.5"/></defs><clipPath id="SVGID_38_"><use xlink:href="#SVGID_37_" overflow="visible"/></clipPath><path class="st19" d="M23.4 30.1v.2l29.1-.1V30H23.4z"/><defs><path id="SVGID_39_" d="M77.1 38.5C77.1 59.8 59.9 77 38.6 77S.1 59.8.1 38.5 17.3 0 38.6 0s38.5 17.2 38.5 38.5"/></defs><clipPath id="SVGID_40_"><use xlink:href="#SVGID_39_" overflow="visible"/></clipPath><path class="st20" d="M23.5 36.1v.1h29V36h-29z"/><defs><path id="SVGID_41_" d="M77.1 38.5C77.1 59.8 59.9 77 38.6 77S.1 59.8.1 38.5 17.3 0 38.6 0s38.5 17.2 38.5 38.5"/></defs><clipPath id="SVGID_42_"><use xlink:href="#SVGID_41_" overflow="visible"/></clipPath><path class="st21" d="M23.5 41.9v.1h29.1v-.2H23.5z"/><defs><path id="SVGID_43_" d="M77.1 38.5C77.1 59.8 59.9 77 38.6 77S.1 59.8.1 38.5 17.3 0 38.6 0s38.5 17.2 38.5 38.5"/></defs><clipPath id="SVGID_44_"><use xlink:href="#SVGID_43_" overflow="visible"/></clipPath><path class="st22" d="M47.8 37.3c-1.4 0-2.6 1-2.6 2.3v4.9c0 1.3 1.2 2.3 2.6 2.3 1.4 0 2.6-1 2.6-2.3v-4.9c0-1.3-1.2-2.3-2.6-2.3z"/><defs><path id="SVGID_45_" d="M77.1 38.5C77.1 59.8 59.9 77 38.6 77S.1 59.8.1 38.5 17.3 0 38.6 0s38.5 17.2 38.5 38.5"/></defs><clipPath id="SVGID_46_"><use xlink:href="#SVGID_45_" overflow="visible"/></clipPath><path class="st23" d="M26.9 27.3v.2h1.8v-.4h-1.8z"/><defs><path id="SVGID_47_" d="M77.1 38.5C77.1 59.8 59.9 77 38.6 77S.1 59.8.1 38.5 17.3 0 38.6 0s38.5 17.2 38.5 38.5"/></defs><clipPath id="SVGID_48_"><use xlink:href="#SVGID_47_" overflow="visible"/></clipPath><path class="st24" d="M34.9 27.6h.2v.2h-.2z"/><path class="st24" d="M33.7 26.5l.1 1.3v.2h1.5v-.2h-.4v-.2h-.8v-.7h.8v.7h.2v.2h.2v-1.3h-1.4z"/><defs><path id="SVGID_49_" d="M77.1 38.5C77.1 59.8 59.9 77 38.6 77S.1 59.8.1 38.5 17.3 0 38.6 0s38.5 17.2 38.5 38.5"/></defs><clipPath id="SVGID_50_"><use xlink:href="#SVGID_49_" overflow="visible"/></clipPath><path class="st25" d="M28.2 33.7h.2v.2h-.2z"/><path class="st25" d="M28.5 32.5l-1.3.1H27l.1 1.3v.2h1.3l.2-.1v-.1h-.4v-.2h-.8v-.8h.8v.8h.2v.2h.2l-.1-1.2z"/><defs><path id="SVGID_51_" d="M77.1 38.5C77.1 59.8 59.9 77 38.6 77S.1 59.8.1 38.5 17.3 0 38.6 0s38.5 17.2 38.5 38.5"/></defs><clipPath id="SVGID_52_"><use xlink:href="#SVGID_51_" overflow="visible"/></clipPath><path class="st26" d="M34.7 33.6h.2v.2h-.2z"/><path class="st26" d="M33.6 32.5V34h1.5v-.2h-.4v-.2H34l-.1-.7h.8v.7h.2v.2h.2v-1.3h-1.3z"/><defs><path id="SVGID_53_" d="M77.1 38.5C77.1 59.8 59.9 77 38.6 77S.1 59.8.1 38.5 17.3 0 38.6 0s38.5 17.2 38.5 38.5"/></defs><clipPath id="SVGID_54_"><use xlink:href="#SVGID_53_" overflow="visible"/></clipPath><path class="st27" d="M41.2 33.6h.2v.2h-.2z"/><path class="st27" d="M40.1 32.5V34h1.5v-.2h-.4v-.2h-.7v-.7l.7-.1v.8h.2v.2h.2v-1.3h-1.3z"/><defs><path id="SVGID_55_" d="M77.1 38.5C77.1 59.8 59.9 77 38.6 77S.1 59.8.1 38.5 17.3 0 38.6 0s38.5 17.2 38.5 38.5"/></defs><clipPath id="SVGID_56_"><use xlink:href="#SVGID_55_" overflow="visible"/></clipPath><path class="st28" d="M46.6 32.4v1.5h1.5v-.2h-.4v-.2H47v-.7h.7v.7h.2v.2h.2v-1.3h-1.3z"/><path class="st28" d="M47.7 33.5h.2v.2h-.2z"/><defs><path id="SVGID_57_" d="M77.1 38.5C77.1 59.8 59.9 77 38.6 77S.1 59.8.1 38.5 17.3 0 38.6 0s38.5 17.2 38.5 38.5"/></defs><clipPath id="SVGID_58_"><use xlink:href="#SVGID_57_" overflow="visible"/></clipPath><path class="st29" d="M28.2 39.4h.2v.2h-.2z"/><path class="st29" d="M27.1 38.3v1.5h1.5v-.2h-.4v-.2h-.7v-.7h.7v.7h.2v.2h.2v-1.3h-1.3z"/><defs><path id="SVGID_59_" d="M77.1 38.5C77.1 59.8 59.9 77 38.6 77S.1 59.8.1 38.5 17.3 0 38.6 0s38.5 17.2 38.5 38.5"/></defs><clipPath id="SVGID_60_"><use xlink:href="#SVGID_59_" overflow="visible"/></clipPath><path class="st30" d="M33.6 38.3v1.5h1.5v-.2h-.4v-.2H34v-.8h.7v.8h.2v.2h.2v-1.3h-1.3z"/><path class="st30" d="M34.7 39.4h.2v.2h-.2z"/><defs><path id="SVGID_61_" d="M77.1 38.5C77.1 59.8 59.9 77 38.6 77S.1 59.8.1 38.5 17.3 0 38.6 0s38.5 17.2 38.5 38.5"/></defs><clipPath id="SVGID_62_"><use xlink:href="#SVGID_61_" overflow="visible"/></clipPath><path class="st31" d="M41.2 39.3h.2v.2h-.2z"/><path class="st31" d="M40.1 38.2v1.5h1.5v-.2h-.4v-.2h-.7v-.7h.7v.7h.2v.2h.2v-1.3h-1.3z"/><defs><path id="SVGID_63_" d="M77.1 38.5C77.1 59.8 59.9 77 38.6 77S.1 59.8.1 38.5 17.3 0 38.6 0s38.5 17.2 38.5 38.5"/></defs><clipPath id="SVGID_64_"><use xlink:href="#SVGID_63_" overflow="visible"/></clipPath><path class="st32" d="M40.2 44v1.5h1.5v-.2h-.4v-.2h-.7l-.1-.8h.8v.8h.2v.2h.2V44h-1.4z"/><path class="st32" d="M41.3 45.1h.2v.2h-.2z"/><defs><path id="SVGID_65_" d="M77.1 38.5C77.1 59.8 59.9 77 38.6 77S.1 59.8.1 38.5 17.3 0 38.6 0s38.5 17.2 38.5 38.5"/></defs><clipPath id="SVGID_66_"><use xlink:href="#SVGID_65_" overflow="visible"/></clipPath><path class="st33" d="M34.8 45.1h.2v.2h-.2z"/><path class="st33" d="M35.1 44h-1.5v1.3l.1.2h1.5v-.2h-.4v-.2H34v-.7h.8v.7h.2v.2h.2l-.1-1.1z"/><defs><path id="SVGID_67_" d="M77.1 38.5C77.1 59.8 59.9 77 38.6 77S.1 59.8.1 38.5 17.3 0 38.6 0s38.5 17.2 38.5 38.5"/></defs><clipPath id="SVGID_68_"><use xlink:href="#SVGID_67_" overflow="visible"/></clipPath><path class="st34" d="M28.2 45.2h.2v.2h-.2z"/><path class="st34" d="M27.1 44.1v1.5l1.3-.1h.2v-.1h-.4v-.2h-.7v-.8h.7v.8h.2v.2h.2V44l-1.3.1z"/><defs><path id="SVGID_69_" d="M77.1 38.5C77.1 59.8 59.9 77 38.6 77S.1 59.8.1 38.5 17.3 0 38.6 0s38.5 17.2 38.5 38.5"/></defs><clipPath id="SVGID_70_"><use xlink:href="#SVGID_69_" overflow="visible"/></clipPath><path class="st35" d="M41.4 27.6h.2v.2h-.2z"/><path class="st35" d="M40.2 26.5V28h1.5v-.2h-.3v-.2h-.8v-.7h.8v.7h.2v.2h.1v-1.3h-1.3z"/><defs><path id="SVGID_71_" d="M77.1 38.5C77.1 59.8 59.9 77 38.6 77S.1 59.8.1 38.5 17.3 0 38.6 0s38.5 17.2 38.5 38.5"/></defs><clipPath id="SVGID_72_"><use xlink:href="#SVGID_71_" overflow="visible"/></clipPath><path class="st36" d="M47.8 27.7h.2v.1h-.2z"/><path class="st36" d="M46.7 26.5V28h1.5v-.2h-.4v-.1h-.7v-.8h.7v.8h.2v.1h.2v-1.3h-1.3z"/><defs><path id="SVGID_73_" d="M77.1 38.5C77.1 59.8 59.9 77 38.6 77S.1 59.8.1 38.5 17.3 0 38.6 0s38.5 17.2 38.5 38.5"/></defs><clipPath id="SVGID_74_"><use xlink:href="#SVGID_73_" overflow="visible"/></clipPath><path class="st37" d="M48.3 42.2h.2v.2h-.2z"/><path class="st37" d="M48.6 41.2h-1.7v1.4h1.8v-.2h-.4v-.2h-1v-.6h1v.6h.2v.2h.2l-.1-1z"/><defs><path id="SVGID_75_" d="M77.1 38.5C77.1 59.8 59.9 77 38.6 77S.1 59.8.1 38.5 17.3 0 38.6 0s38.5 17.2 38.5 38.5"/></defs><clipPath id="SVGID_76_"><use xlink:href="#SVGID_75_" overflow="visible"/></clipPath><path class="st38" d="M56.6 51c-.1-2.6-.1-4.2-.2-4.5v-.2c-.1-.6-.4-2.7-2.3-2.7-.4 0-.9.1-1.4.3-.1-.3-.1-.4-.1-.5-.3-.8-1.5-2.2-3-2.2-.5 0-1 .1-1.4.4h-.1l-.1.1c-.1-.1-.1-.2-.2-.2l-.2-.3c-.4-.6-1-1.7-2.8-1.7-.3 0-.7 0-1.1.1-.1-5.3-.2-6.2-.2-6.3 0-1-1-2.2-2.5-2.2-.9 0-2.6.3-2.6 2.4v14.9c-.8-2.2-2.6-3.5-4-3.6-.9-.1-1.5.2-1.9.7-.4.6-.3 1.3-.2 1.6l3.6 7.7c.8 1.1 2.2 5.1 2.7 6 .8 1.3 1.1 4.5 1.1 4.5v.1l.2 1.1h14.3v-.3c.3-1.9.6-4.1.7-4.4 1.1-1.7 2-5.6 1.9-6.6-.1-.4-.1-2.3-.2-4.2z"/><defs><path id="SVGID_77_" d="M77.1 38.5C77.1 59.8 59.9 77 38.6 77S.1 59.8.1 38.5 17.3 0 38.6 0s38.5 17.2 38.5 38.5"/></defs><clipPath id="SVGID_78_"><use xlink:href="#SVGID_77_" overflow="visible"/></clipPath><g class="st39"><defs><path id="SVGID_79_" d="M41 31.8c-1.1 0-1.8.8-1.8 1.4s.8 1.1 1.9 1.1c1 0 1.9-.5 1.9-1.2-.1-.5-1-1.3-2-1.3"/></defs><clipPath id="SVGID_80_"><use xlink:href="#SVGID_79_" overflow="visible"/></clipPath><path class="st40" d="M39.1 31.8h3.8v2.6h-3.8z"/><defs><path id="SVGID_81_" d="M77.1 38.5C77.1 59.8 59.9 77 38.6 77S.1 59.8.1 38.5 17.3 0 38.6 0s38.5 17.2 38.5 38.5"/></defs><clipPath id="SVGID_82_"><use xlink:href="#SVGID_81_" overflow="visible"/></clipPath><path class="st41" d="M34.5 45.4c-.3 0-.6.1-.9.2-.9.4-1.2 1.3-1 1.9.1.3.5.5 1 .5.3 0 .7-.1 1-.2.9-.4 1.4-1.1 1.1-1.7 0-.5-.6-.7-1.2-.7z"/><defs><path id="SVGID_83_" d="M77.1 38.5C77.1 59.8 59.9 77 38.6 77S.1 59.8.1 38.5 17.3 0 38.6 0s38.5 17.2 38.5 38.5"/></defs><clipPath id="SVGID_84_"><use xlink:href="#SVGID_83_" overflow="visible"/></clipPath><path class="st42" d="M37.9 66.1c-.3.6 0 4.2 0 4.2h17.5s.2-3.8 0-4.2c-.2-.4-17.2-.7-17.5 0z"/><defs><path id="SVGID_85_" d="M77.1 38.5C77.1 59.8 59.9 77 38.6 77S.1 59.8.1 38.5 17.3 0 38.6 0s38.5 17.2 38.5 38.5"/></defs><clipPath id="SVGID_86_"><use xlink:href="#SVGID_85_" overflow="visible"/></clipPath><path class="st43" d="M35.9 76.9v.2h21.7s.1-2.9 0-5.1c-5.6 3.2-12.1 5-19 5-.9 0-1.8 0-2.7-.1z"/><path class="st43" d="M36.3 69.8c-.6.7-.4 6-.4 7.1.9.1 1.8.1 2.7.1 6.9 0 13.4-1.8 19-5-.1-1.1-.2-2-.4-2.3-.6-1-20.3-.8-20.9.1z"/></g><path class="st44" d="M66.4 21.7v-2.8h-2.6v2.8H61v2.7h2.8v2.8h2.6v-2.8h2.9v-2.7zM26.2 62.1h-2v2.2H22v2h2.2v2.2h2v-2.2h2.2v-2h-2.2z"/><path class="st45" d="M11.9 46.8v-2.5c0-1.1-.7-1.5-2.7-1.6-2 0-2.7.5-2.7 1.6v2.5c0 1.2.8 1.6 2.7 1.6 2 0 2.7-.5 2.7-1.6zm-3.1-.5V45c0-.5.1-.7.5-.6.3 0 .5.2.5.6v1.3c0 .4-.2.6-.5.6s-.5-.2-.5-.6zm7.9-3.3L7.9 53l1.4 1.2 8.8-10zm0 5.7c-2 0-2.7.5-2.7 1.6v2.5c0 1.2.8 1.6 2.7 1.6 2 0 2.7-.5 2.7-1.6v-2.5c0-1.2-.7-1.6-2.7-1.6zm.6 3.5c0 .4-.2.6-.5.6s-.5-.2-.5-.6v-1.3c0-.4.1-.6.5-.6.3 0 .5.2.5.6v1.3zm41.8 6.4h6.6v1.7h-6.6z"/><path class="st44" d="M69.2 50.3c-1.3 0-1.8.3-1.8 1.1v1.7c0 .8.5 1.1 1.8 1.1s1.8-.3 1.8-1.1v-1.7c0-.8-.5-1-1.8-1.1zm.3 2.3c0 .3-.1.4-.3.4-.2 0-.3-.1-.3-.4v-.8c0-.2.1-.4.3-.4.2 0 .3.1.3.4v.8zm-3.6-3.5v-1.7c0-.8-.5-1.1-1.8-1.1s-1.8.3-1.8 1.1v1.7c0 .8.5 1.1 1.8 1.1s1.8-.3 1.8-1.1zm-2.1-.5v-.8c0-.3.1-.4.3-.4s.3.1.3.4v.8c0 .3-.1.4-.3.4-.2 0-.3-.1-.3-.4zm5.3-2.1l-5.9 6.8 1 .8 5.9-6.8z"/><path class="st45" d="M57.1 39.7h6.3v1.7h-6.3zM9.2 26.8h8.4v2.5H9.2zm0-4.2h8.4v2.5H9.2z"/><g class="st39"><path class="st46" d="M41.7 17.1v.5l.8-.2v2.5h.6v-3.3H43zm6.2-.6c-.3 0-.6.1-.8.4-.2.3-.3.6-.3 1v.6c0 .4.1.8.3 1s.5.4.8.4c.4 0 .6-.1.8-.4.2-.2.3-.6.3-1V18c0-.5-.1-.8-.3-1.1-.2-.2-.5-.4-.8-.4zm.5 2.2c0 .3 0 .4-.1.6-.1.2-.2.2-.3.2-.2 0-.3-.1-.3-.2-.1-.1-.1-.3-.1-.6v-.8c0-.3 0-.4.1-.6.1-.1.2-.2.3-.2.2 0 .3.1.3.2.1.1.1.3.1.6v.8zm-3.1-2.1c-.4 0-.6.1-.8.4-.2.3-.3.6-.3 1v.6c0 .4.1.8.3 1 .2.2.5.4.8.4.4 0 .6-.1.8-.4.2-.2.3-.6.3-1V18c0-.4-.1-.8-.3-1-.2-.3-.5-.4-.8-.4zm.4 2.1c0 .3 0 .4-.1.6-.1.2-.2.2-.3.2-.2 0-.3-.1-.3-.2-.1-.1-.1-.3-.1-.6v-.8c0-.3 0-.4.1-.6.1-.1.2-.2.3-.2.2 0 .3.1.3.2.1.1.1.3.1.6v.8z"/></g><path class="st45" d="M66.4 32.9c-.4-.6-.9-1.1-1.6-1.4s-1.5-.5-2.5-.5h-4.2v6h-1v2h1v4h2v-4h2.2c1.5 0 2.6-.4 3.5-1.1.8-.7 1.3-1.7 1.3-2.9-.1-.7-.3-1.5-.7-2.1zm-2 3.6c-.4.3-.9.5-1.5.5h-2.8v-4H63c.6 0 1.1.2 1.5.6.4.4.5.9.5 1.5s-.2 1-.6 1.4z"/></svg>