<svg id="Layer_1" xmlns="http://www.w3.org/2000/svg" viewBox="0 0 83.6 90.5"><style>.st0{fill:#da844b}.st1{fill:#444a59}</style><g id="XMLID_522_"><path id="XMLID_600_" class="st0" d="M32.9 89.5v-1H2V59.1h29.9v30.4h1v-1 1h1V58.1c0-.3-.1-.5-.3-.7-.2-.2-.4-.3-.7-.3H1c-.3 0-.5.1-.7.3-.2.2-.3.5-.3.7v31.4c0 .3.1.5.3.7.2.2.4.3.7.3h31.9c.3 0 .5-.1.7-.3.2-.2.3-.4.3-.7h-1z"/><path id="XMLID_609_" class="st0" d="M11 65.9h12c.6 0 1-.4 1-1s-.4-1-1-1H11c-.6 0-1 .4-1 1s.4 1 1 1"/><path id="XMLID_610_" class="st0" d="M41.8 81.2l-.7-.7-7.2 6.8V59.1h6.9v22h1l-.7-.7.7.8h1v-23c0-.3-.1-.5-.3-.7-.2-.2-.4-.3-.7-.3h-8.9c-.6 0-1 .4-1 1v31.4c0 .4.2.8.6.9s.8.1 1.1-.2l8.9-8.3c.2-.2.3-.5.3-.7h-1z"/><path id="XMLID_611_" class="st0" d="M21.4 48.8H9.9c-.3 0-.5.1-.7.3L.3 57.4c-.3.3-.4.7-.2 1.1s.5.6.9.6h31.9v-2H3.5l6.8-6.3h11.1v-2z"/><path id="XMLID_612_" class="st0" d="M73.7 89.5v-1H42.8V59.1h29.9v30.4h1v-1 1h1V58.1c0-.3-.1-.5-.3-.7-.2-.2-.4-.3-.7-.3H41.8c-.3 0-.5.1-.7.3-.2.2-.3.4-.3.7v31.4c0 .3.1.5.3.7.2.2.4.3.7.3h31.9c.3 0 .5-.1.7-.3.2-.2.3-.4.3-.7h-1z"/><path id="XMLID_613_" class="st0" d="M51.8 65.9h12c.6 0 1-.4 1-1s-.4-1-1-1h-12c-.6 0-1 .4-1 1s.4 1 1 1"/><path id="XMLID_614_" class="st0" d="M82.6 81.2l-.7-.7-7.2 6.8V58.7l6.9-6.5v29.1h1l-.7-.7.7.6h1V49.8c0-.4-.2-.8-.6-.9-.4-.2-.8-.1-1.1.2L73 57.4c-.2.2-.3.5-.3.7v31.4c0 .4.2.8.6.9s.8.1 1.1-.2l8.9-8.3c.2-.2.3-.5.3-.7h-1z"/><path id="XMLID_615_" class="st0" d="M41.8 59.1h31.9c.3 0 .5-.1.7-.3l8.9-8.3c.3-.3.4-.7.2-1.1-.2-.4-.5-.6-.9-.6H62.2v2h17.9l-6.8 6.3H41.8v2z"/><path id="XMLID_616_" class="st0" d="M53.3 58.1v-1H22.4V27.7h29.9v30.4h1v-1 1h1V26.7c0-.3-.1-.5-.3-.7-.2-.2-.4-.3-.7-.3H21.4c-.3 0-.5.1-.7.3-.2.2-.3.4-.3.7v31.4c0 .3.1.5.3.7.2.2.4.3.7.3h31.9c.3 0 .5-.1.7-.3.2-.2.3-.4.3-.7h-1z"/><path id="XMLID_617_" class="st0" d="M31.4 34.5h12c.6 0 1-.4 1-1s-.4-1-1-1h-12c-.6 0-1 .4-1 1s.4 1 1 1"/><path id="XMLID_618_" class="st0" d="M62.2 49.8l-.7-.7-7.2 6.8V27.3l6.9-6.5v29.1h1l-.7-.7.7.6h1V18.4c0-.4-.2-.8-.6-.9-.4-.2-.8-.1-1.1.2L52.6 26c-.2.2-.3.5-.3.7v31.4c0 .4.2.8.6.9.4.2.8.1 1.1-.2l8.9-8.3c.2-.2.3-.5.3-.7h-1z"/><path id="XMLID_619_" class="st0" d="M30.3 18.4l-.7-.7-8.9 8.3c-.3.3-.4.7-.2 1.1.2.4.5.6.9.6h31.9c.3 0 .5-.1.7-.3l8.9-8.3c.3-.3.4-.7.2-1.1-.2-.4-.5-.6-.9-.6H30.3c-.3 0-.5.1-.7.3l.7.7v1h29.4l-6.8 6.3h-29l7.1-6.6-.7-.7v1-1z"/><path id="XMLID_623_" class="st1" d="M49 13.3c0 2.5-.4 4.4-1.3 5.7-.8 1.3-2 1.9-3.6 1.9s-2.8-.7-3.7-2c-.8-1.3-1.3-3.2-1.3-5.7V8.9c0-2.4.4-4.3 1.3-5.5.8-1.2 2-1.9 3.7-1.9 1.6 0 2.9.6 3.7 1.9.8 1.3 1.2 3.2 1.2 5.7v4.2zM50.8 9c0-3-.6-5.2-1.8-6.7C47.8.8 46.2 0 44 0s-3.8.8-5 2.4c-1.1 1.6-1.7 3.9-1.7 7v3.9c0 3 .6 5.3 1.8 6.8 1.1 1.6 2.8 2.3 5 2.3s3.9-.8 5-2.4c1.1-1.6 1.7-3.9 1.7-7V9zM33.5.2h-.3L25.8 3v1.7l5.9-2.2v19.7h1.8V.2z"/><path id="XMLID_624_" class="st1" d="M61 10.5h.7c0-.9.7-1.6 1.6-1.6.9 0 1.6.7 1.6 1.6 0 .9-.7 1.6-1.6 1.6-.9 0-1.6-.7-1.6-1.6h-1.4c0 1.7 1.3 3 3 3s3-1.3 3-3-1.3-3-3-3-3 1.3-3 3h.7z"/><path id="XMLID_625_" class="st1" d="M57.3 3.7h-.7c0 .9-.7 1.6-1.6 1.6-.9 0-1.6-.7-1.6-1.6 0-.9.7-1.6 1.6-1.6.9 0 1.6.7 1.6 1.6H58c0-1.7-1.3-3-3-3s-3 1.3-3 3 1.3 3 3 3 3-1.3 3-3h-.7z"/><path id="XMLID_626_" class="st1" d="M61.9 1.3l-6.8 11c-.2.3-.1.8.2 1 .3.2.8.1 1-.2l6.8-11c.2-.3.1-.8-.2-1-.3-.3-.8-.2-1 .2"/></g></svg>