<svg xmlns="http://www.w3.org/2000/svg" width="84.6" height="102" viewBox="0 0 84.6 102"><style>.st0{stroke:#da844b}.st0,.st1,.st2,.st3{fill:none;stroke-width:3;stroke-linejoin:round;stroke-miterlimit:10}.st1{stroke-linecap:round;stroke:#da844b}.st2,.st3{stroke:#444a59}.st3{stroke-linecap:round}</style><path fill="#D22856" id="XMLID_29_" class="st0" d="M1.5 69.1h31.9v31.4H1.5z"/><path id="XMLID_28_" class="st1" d="M11.5 75.9h12"/><path id="XMLID_27_" class="st0" d="M42.3 92.2l-8.9 8.3V69.1h8.9z"/><path id="XMLID_26_" class="st0" d="M21.9 60.8H10.4l-8.9 8.3h31.9"/><path id="XMLID_25_" class="st0" d="M42.3 69.1h31.9v31.4H42.3z"/><path id="XMLID_24_" class="st1" d="M52.3 75.9h12"/><path id="XMLID_23_" class="st0" d="M83.1 92.2l-8.9 8.3V69.1l8.9-8.3z"/><path id="XMLID_22_" class="st0" d="M42.3 69.1h31.9l8.9-8.3H62.7"/><path id="XMLID_21_" class="st0" d="M21.9 37.7h31.9v31.4H21.9z"/><path id="XMLID_20_" class="st1" d="M31.9 44.5h12"/><path id="XMLID_19_" class="st0" d="M62.7 60.8l-8.9 8.3V37.7l8.9-8.3z"/><path id="XMLID_18_" class="st0" d="M45.6 29.4H30.8l-8.9 8.3h31.9l8.9-8.3h-6.2"/><circle id="XMLID_17_" class="st2" cx="51" cy="26.3" r="6.2"/><circle id="XMLID_16_" class="st2" cx="34" cy="7.7" r="6.2"/><path id="XMLID_15_" class="st3" d="M51.7 2L33.3 32.1"/></svg>