<svg id="Layer_1" xmlns="http://www.w3.org/2000/svg" viewBox="-415 231 127.8 100"><style>.st0{fill:#eb0d00}.st1{fill:#fff}.st2{fill:url(#XMLID_2_)}</style><g id="XMLID_6_"><g id="XMLID_11_"><path id="XMLID_12_" class="st0" d="M-345.5 281l8.1-27.5V231s-13.6.1-14.6.1c-3.7 0-7.1 2.2-8.2 6l-13 43.9h27.7z"/><path id="XMLID_15_" class="st0" d="M-381.5 310l-6.3 21h27.7l6.2-21z"/></g><path id="XMLID_19_" class="st1" d="M-404.5 284l-3.3 16.4-3.3-16.4h-3.9v23h3v-13.7l3.4 13.7h1.7l2.9-13.7V307h3v-23z"/><path id="XMLID_260_" class="st1" d="M-389.1 294.8c.6-1.1.9-2.4.9-3.9 0-2-.5-3.9-1.7-5-1.2-1.2-2.9-1.9-5.1-1.9h-4v23h3v-9.6l1.8-.1 4 9.6h3.1l-4.5-9.9c1.1-.4 2-1.3 2.5-2.2zm-6.9-7.8h1.1c1.5 0 2.4.4 3 .9.5.5.9 1.5.9 3s-.3 2.5-.9 3.1-1.4 1-2.6 1h-1.5v-8z"/><path id="XMLID_261_" class="st0" d="M-360.8 284v15.5l-6.1-15.5h-3.1v23h3v-15.9c0-.1-.1-.1-.1-.2l6.6 16.1h2.5v-23h-2.8z"/><path id="XMLID_264_" class="st0" d="M-375.2 284h-2.4l-5.2 23h2.8l1.3-6h4.8l1.4 6h2.7l-.2-1.2-5.2-21.8zm-1.2 6l1.8 8h-3.5l1.7-8z"/><path id="XMLID_269_" class="st0" d="M-295.5 305.8l-5.2-21.8h-2.4l-5.2 23h2.8l1.4-6h4.7l1.4 6h2.7l-.2-1.2zm-6.4-15.8l1.8 8h-3.5l1.7-8z"/><circle id="XMLID_272_" class="st1" cx="-384.9" cy="305.6" r="1.7"/><linearGradient id="XMLID_2_" gradientUnits="userSpaceOnUse" x1="-337.986" y1="332.393" x2="-352.495" y2="307.236" gradientTransform="matrix(1 0 0 -1 0 564)"><stop offset="0" stop-opacity=".5"/><stop offset="1" stop-opacity="0"/></linearGradient><path id="XMLID_252_" class="st2" d="M-343.7 275l6.3-21.4v-22.5c0-.1-13.6 0-14.6 0-3.7 0-7.1 2.3-8.2 6l-11.2 37.9h27.7z"/><g id="XMLID_7_"><path id="XMLID_8_" class="st0" d="M-341.3 240.4c2.5 8.5 7.2 24.6 11.9 40.6h27.6l-12.8-43.5c-1.1-3.7-4.4-6.4-8.1-6.5l-29 .1c.1 0 7.8.1 10.4 9.3z"/><path id="XMLID_13_" class="st0" d="M-321.2 310c3.7 12 6.3 21 6.3 21h27.7l-6.3-21h-27.7z"/></g><path id="XMLID_17_" class="st0" d="M-346 284h-11v3h4v20h3v-20h4z"/><path id="XMLID_14_" class="st0" d="M-336 287v-3h-9v23h9v-3h-6v-8h5v-2h-5v-7z"/><path id="XMLID_197_" class="st0" d="M-323 284h-3v15.2l-5.8-15.2h-3.2v23h3v-15.8l6.6 15.8h2.4v-23zm-8.9 6.9z"/><path id="XMLID_20_" class="st0" d="M-309.6 284h-2.1v15.9l-6.5-15.9h-2.8v23h3v-15.3l6.2 15.3h2.8v-23h-.6z"/></g></svg>