<svg id="Layer_1" xmlns="http://www.w3.org/2000/svg" viewBox="0 0 78.1 97.1"><style>.st0{fill:#da844b}.st1{fill:#444a59;stroke:#444a59;stroke-width:.1;stroke-miterlimit:10}</style><g id="XMLID_599_"><path id="XMLID_601_" class="st0" d="M55.2 11.7l.4-.9C46.4 6.9 41.6 2.6 39.8.7l-.7-.8-.7.8c-1.9 2-6.6 6.2-15.8 10.1-9.1 3.9-17.1 4.4-20.7 4.4H.1v38.7c0 4.5.8 8.9 3.2 13.5 2.4 4.6 6.3 9.2 12.6 14C26.6 89.5 36 95.3 38.6 96.8l.5.3.5-.3c.3-.2.7-.4 1.2-.7 1.2-.7 3-1.8 5.1-3.2 4.3-2.8 10.2-6.7 16.4-11.5 6.3-4.8 10.2-9.4 12.6-14 2.4-4.6 3.2-9 3.2-13.5V15.1h-1.8c-3.7 0-11.6-.5-20.7-4.4l-.4 1-.4.9c9.4 4 17.7 4.6 21.5 4.6h.8v-1h-1V54c0 4.2-.8 8.3-3 12.6-2.2 4.3-5.9 8.7-12 13.3-6.2 4.7-12.1 8.7-16.3 11.4-2.1 1.4-3.9 2.4-5.1 3.2-.5.3-.9.5-1.2.7l.5.9.5-.9C37 93.7 27.6 88 16.9 79.9c-6.1-4.6-9.8-9.1-12-13.3-2.2-4.3-3-8.4-3-12.6.1-8 .1-31.9.1-37.9H1v1h.8c3.8 0 12.1-.5 21.5-4.6 9.5-4 14.5-8.4 16.5-10.6l-.7-.7-.8.8c2.1 2.2 7 6.6 16.5 10.6l.4-.9z"/></g><g id="XMLID_482_"><g id="XMLID_502_"><path id="XMLID_504_" class="st1" d="M14.3 36.6c.4.2.9.4 1.3.4h1.1c.3 0 .6-.1.8-.3.3-.3.3-.7.3-1.1.3.7.6 1.2.9 1.7.1.1.2.3.3.5.4.7.8 1.1 1.3 1.5l.1.1c.4.3 1.6 1.1 3 1.1h.3c.5 0 1.6-.2 2.9-1.2.4-.3.8-.8 1.2-1.4.1-.2.2-.3.3-.5.3-.5.6-1 .9-1.6v.3c0 .2.1.5.3.6 0 0 .1.1.2.1 0 .6-.1 1.4-.3 2.2-.2.8-.6 1.4-1 1.6-.2-.1-.5-.3-.9-.3-.1 0-.3 0-.4.1l-2.5.6c-.8.2-1.3.9-1.3 1.7v.4c.2.8.9 1.3 1.7 1.3.1 0 .3 0 .4-.1l2.5-.6c.8-.2 1.3-.9 1.3-1.6v-.4c.8-.5 1.3-1.4 1.5-2.3.3-.9.3-1.8.4-2.4h.4c.4 0 .8-.1 1.2-.4.4-.2.8-.6 1-1 .4-.8.5-1.6.5-2.4 0-.8-.2-1.7-.5-2.4-.3-.6-1-1-1.6-1.2-.1-4.9-3.9-8.6-8.5-8.6s-8.3 3.8-8.5 8.5c-.6.2-1.3.6-1.6 1.3-.3.8-.5 1.6-.5 2.4 0 .8.2 1.7.5 2.5.3.3.6.6 1 .9zm.3-5.3c.1-.1.2-.3.4-.4.2-.1.4-.2.6-.2h.9v4.9h-.9c-.1 0-.4-.1-.6-.2-.2-.1-.4-.3-.4-.4-.3-.6-.4-1.2-.4-1.9 0-.6.1-1.2.4-1.8zm8.8-9c3.8 0 6.9 3.1 7.1 7h-.3c-.2 0-.3 0-.5.1-.2-1.1-.7-2.4-1.6-3.5-.9-1.1-2.4-2-4.6-2-2.2 0-3.6.9-4.6 2.1-.9 1.1-1.4 2.4-1.7 3.5-.2-.1-.4-.2-.7-.2h-.3c.3-3.9 3.4-7 7.2-7zm5 12c-.3 0-.5.2-.5.4-.3.7-.6 1.2-.9 1.8-.1.2-.2.3-.3.5-.3.5-.6.8-.9 1.1-1 .9-1.8.9-2.1.9h-.2c-.6 0-1.1-.2-1.5-.5-.2-.1-.4-.2-.5-.3-.1 0-.1-.1-.2-.1-.3-.2-.6-.6-.9-1.1-.1-.2-.2-.3-.3-.5-.4-.6-.7-1-.9-1.8-.1-.3-.4-.4-.6-.5l-.1-.1c-.1-.2-.2-.2-.4-.3v-1.6c.1 0 .2-.1.3-.1.1-.1.2-.3.2-.5v-.3c0-.5.2-1.7.7-2.9.9-2.1 2.4-3.1 4.4-3.1 1.3 0 2.2.4 2.9.9 1.1.8 1.6 2.1 1.9 3.2.3 1.1.3 2 .3 2.1 0 .2.1.4.2.5l.1.1v1.7c-.1.1-.3.1-.4.3l-.3.2zm2.9-3.6c.1 0 .4.1.6.2.2.1.4.3.4.4.3.6.4 1.2.4 1.9 0 .6-.1 1.3-.4 1.9-.1.1-.2.3-.4.4-.2.1-.4.2-.6.2h-.9v-4.9h.9zm-3.9 11.6l-2.5.6h-.1c-.2 0-.3-.1-.4-.3v-.1c0-.2.1-.3.3-.4l2.5-.6h.1c.2 0 .3.1.4.3v.1c0 .2-.1.4-.3.4z"/><path id="XMLID_503_" class="st1" d="M36 45.5c-.2-.6-.8-1.2-1.5-1.7s-1.7-1-2.6-1.4c-.5-.2-.9-.5-1.3-.7-.1-.1-.2-.1-.4-.1s-.5.1-.6.3c-.1.1-.1.2-.1.3 0 .2.1.5.4.6.4.2.9.5 1.4.7.7.4 1.5.8 2.1 1.2.3.2.6.4.8.6.2.2.4.4.4.5.2.7.3 1.1.4 1.4.1.3.1.4.1.6v.1H11.7v-.1c0-.2.2-.9.5-2 0-.2.2-.4.5-.7.9-.8 3-1.9 6.3-3.1.1 0 .3-.1.7-.3.3-.2.7-.4 1-.8.1-.1.1-.3.1-.4 0-.2-.1-.4-.3-.5-.1-.1-.3-.1-.4-.1-.2 0-.4.1-.5.3-.3.3-.8.6-1 .7-1.7.7-3.5 1.4-4.9 2.2-1.4.8-2.4 1.6-2.7 2.5-.2.7-.3 1.3-.4 1.6 0 .2-.1.3-.1.4v.2c0 .5.1.8.4 1.1.5.4 1.1.4 1.5.4h22.7c.3 0 .5 0 .7-.1.2-.1.4-.2.5-.3.3-.3.4-.7.4-1.1-.2-.4-.2-.7-.7-2.3z"/></g><g id="XMLID_483_"><path id="XMLID_501_" class="st1" d="M49.7 57h.8v-.8l-.5-.5-.7-.1c-.6.3-1.3.4-2.1.4-1.5 0-2.9-.7-3.9-1.8h3.9l.5-.3 2-2.8v-.7l-2-2.8-.5-.3h-3.9c1-1.1 2.4-1.8 3.9-1.8 1.4 0 2.7.5 3.7 1.5s1.5 2.3 1.5 3.7c0 .5-.2 1.4-.3 1.7l.2.6 1.8 1.8h.8l.2-.4-.2-.4-1.6-1.6c.1-.4.3-1.2.3-1.7 0-1.7-.7-3.3-1.9-4.5-1.2-1.2-2.8-1.9-4.5-1.9-2.3 0-4.4 1.2-5.6 3.3v.6l.5.3h4.8l1.6 2.2-1.6 2.2h-4.8l-.5.3v.6c1.1 2 3.3 3.3 5.6 3.3.8 0 1.5-.1 2.3-.4l.2.3z"/><path id="XMLID_500_" class="st1" d="M57.7 58.6l8.3 8.3c.3.3.5.7.5 1.2 0 .4-.2.9-.5 1.2-.3.3-.7.5-1.2.5-.4 0-.9-.2-1.2-.5l-7.1-7.1h-.8v.8l7.1 7.1c.5.5 1.3.8 2 .8.8 0 1.5-.3 2-.8s.8-1.3.8-2c0-.8-.3-1.5-.8-2l-8.3-8.3h-.8v.8z"/><path id="XMLID_494_" class="st1" d="M64.1 68.1l.2.5c.3.3.8.3 1 0l.2-.5-.2-.5c-.3-.3-.8-.3-1 0l-.2.5z"/><path id="XMLID_485_" class="st1" d="M61.1 48.5l-.1.2-.6 1.7-6.2 6.2-1-1h-.8l-.1.7-9.4 9.4c-.6.6-.9 1.3-.9 2.1s.3 1.6.9 2.1c.6.6 1.3.9 2.1.9s1.6-.3 2.1-.9l9.4-9.4.7-.1v-.8l-1-1 6.2-6.2 1.7-.6.2-.1 3.5-3.5.2-.4-.2-.4-2.4-2.4-.4-.2-.5.2-3.4 3.5zm-7.4 9.4l1.8 1.8-9.4 9.4c-.3.3-.8.5-1.3.5s-.9-.2-1.3-.5c-.3-.3-.5-.8-.5-1.3s.2-.9.5-1.3l9.4-9.4.8.8zm12.7-10.2l-3 3-1.7.6-.2.1-6.3 6.3-.2-.2 6.3-6.3.1-.2.6-1.7 3-3 1.4 1.4z"/><path id="XMLID_484_" class="st1" d="M44.4 67.4v.8h.9l8.2-8.2.2-.5-.2-.4h-.8z"/></g></g></svg>