<svg xmlns="http://www.w3.org/2000/svg" xmlns:xlink="http://www.w3.org/1999/xlink" width="341.5" height="66" viewBox="0 0 341.5 66"><style>.st0{fill:#333f72}.st1{clip-path:url(#XMLID_129_)}.st2{fill:#fff}.st3{clip-path:url(#XMLID_130_)}.st4{clip-path:url(#XMLID_131_)}.st5{clip-path:url(#XMLID_132_)}.st6{clip-path:url(#XMLID_133_)}.st7{clip-path:url(#XMLID_134_)}.st8{clip-path:url(#XMLID_135_)}.st9{clip-path:url(#XMLID_136_)}.st10{clip-path:url(#XMLID_137_)}.st11{clip-path:url(#XMLID_138_)}.st12{clip-path:url(#XMLID_139_)}.st13{clip-path:url(#XMLID_140_)}.st14{clip-path:url(#XMLID_141_)}.st15{clip-path:url(#XMLID_142_)}.st16{clip-path:url(#XMLID_143_)}.st17{clip-path:url(#XMLID_144_)}</style><g id="XMLID_124_"><path id="XMLID_126_" class="st0" d="M340.5 1v64H172V1h168.5m1-1H171v66h170.5V0z"/></g><g id="XMLID_121_"><path id="XMLID_123_" class="st0" d="M0 0h173.9v66H0z"/></g><g id="XMLID_109_"><defs><path id="XMLID_110_" d="M35.3 27.4h-13v-15h-12v42h12v-17h13v17h13v-42h-13z"/></defs><clipPath id="XMLID_129_"><use xlink:href="#XMLID_110_" overflow="visible"/></clipPath><g id="XMLID_111_" class="st1"><path id="XMLID_120_" class="st2" d="M8.3 14.4h41.6v-2H8.3"/><path id="XMLID_119_" class="st2" d="M8.3 19.4h41.6v-2H8.3"/><path id="XMLID_118_" class="st2" d="M8.3 24.4h41.6v-2H8.3"/><path id="XMLID_117_" class="st2" d="M8.3 29.4h41.6v-2H8.3"/><path id="XMLID_116_" class="st2" d="M8.3 34.4h41.6v-2H8.3"/><path id="XMLID_115_" class="st2" d="M8.3 39.4h41.6v-2H8.3"/><path id="XMLID_114_" class="st2" d="M8.3 44.4h41.6v-2H8.3"/><path id="XMLID_113_" class="st2" d="M8.3 49.4h41.6v-2H8.3"/><path id="XMLID_112_" class="st2" d="M8.3 54.4h41.6v-2H8.3"/></g></g><g id="XMLID_95_"><defs><path id="XMLID_96_" d="M72.2 11.6c-6.4 0-11.4 1.9-15 5.7-3.6 3.8-5.4 9.2-5.4 16 0 4.9.9 9 2.7 12.3 1.8 3.3 4.2 5.7 7.1 7.2 2.9 1.5 6.6 2.3 11.1 2.3 4.4 0 8.1-.9 11-2.6 2.9-1.7 5.2-4.2 6.7-7.3S92.8 38 92.8 33c0-6.8-1.8-12-5.3-15.8s-8.7-5.6-15.3-5.6zm6.2 31c-1.4 1.8-3.5 2.7-6.1 2.7-2.6 0-4.6-.9-6.1-2.8S64 37.6 64 33.4c0-4.3.7-7.3 2.2-9.2 1.5-1.9 3.5-2.8 5.9-2.8 2.6 0 4.6.9 6.1 2.7s2.3 4.7 2.3 8.7c.1 4.8-.7 8-2.1 9.8z"/></defs><clipPath id="XMLID_130_"><use xlink:href="#XMLID_96_" overflow="visible"/></clipPath><g id="XMLID_99_" class="st3"><path id="XMLID_108_" class="st2" d="M50.8 14.4h42.7v-2H50.8"/><path id="XMLID_107_" class="st2" d="M50.8 19.4h42.7v-2H50.8"/><path id="XMLID_106_" class="st2" d="M50.8 24.4h42.7v-2H50.8"/><path id="XMLID_105_" class="st2" d="M50.8 29.4h42.7v-2H50.8"/><path id="XMLID_104_" class="st2" d="M50.8 34.4h42.7v-2H50.8"/><path id="XMLID_103_" class="st2" d="M50.8 39.4h42.7v-2H50.8"/><path id="XMLID_102_" class="st2" d="M50.8 44.4h42.7v-2H50.8"/><path id="XMLID_101_" class="st2" d="M50.8 49.4h42.7v-2H50.8"/><path id="XMLID_100_" class="st2" d="M50.8 54.4h42.7v-2H50.8"/></g></g><g id="XMLID_83_"><defs><path id="XMLID_84_" d="M123.7 29.8c-2.3-1.3-6.1-2.5-11.5-3.7-2.2-.5-3.5-1-4.1-1.5-.6-.5-.9-1.1-.9-1.8 0-.9.4-1.7 1.1-2.3.7-.6 1.8-1 3.2-1 1.7 0 3.1.4 4.1 1.3s1.6 2.2 1.9 4.1l11.5-.7c-.5-4.4-2.1-7.5-4.7-9.5-2.7-2-6.5-3-11.6-3-4.1 0-7.4.5-9.7 1.6s-4.1 2.6-5.3 4.5c-1.2 1.9-1.8 4-1.8 6.1 0 3.3 1.2 6 3.5 8.1 2.3 2.1 6.1 3.8 11.5 5.1 3.3.8 5.4 1.6 6.3 2.4.9.9 1.3 1.8 1.3 2.9 0 1.1-.5 2.2-1.4 3s-2.3 1.3-4 1.3c-2.3 0-4.1-.8-5.4-2.6-.8-1.1-1.3-2.6-1.5-4.6l-11.6.8c.3 4.2 1.8 7.7 4.4 10.5 2.6 2.8 7.2 4.1 14 4.1 3.8 0 7-.6 9.5-1.8s4.5-2.9 5.9-5.2c1.4-2.3 2.1-4.8 2.1-7.5 0-2.3-.5-4.4-1.6-6.2-1.2-1.6-2.9-3.1-5.2-4.4z"/></defs><clipPath id="XMLID_131_"><use xlink:href="#XMLID_84_" overflow="visible"/></clipPath><g id="XMLID_85_" class="st4"><path id="XMLID_94_" class="st2" d="M93.5 14.4h37.8v-2H93.5"/><path id="XMLID_93_" class="st2" d="M93.5 19.4h37.8v-2H93.5"/><path id="XMLID_92_" class="st2" d="M93.5 24.4h37.8v-2H93.5"/><path id="XMLID_91_" class="st2" d="M93.5 29.4h37.8v-2H93.5"/><path id="XMLID_90_" class="st2" d="M93.5 34.4h37.8v-2H93.5"/><path id="XMLID_89_" class="st2" d="M93.5 39.4h37.8v-2H93.5"/><path id="XMLID_88_" class="st2" d="M93.5 44.4h37.8v-2H93.5"/><path id="XMLID_87_" class="st2" d="M93.5 49.4h37.8v-2H93.5"/><path id="XMLID_86_" class="st2" d="M93.5 54.4h37.8v-2H93.5"/></g></g><g id="XMLID_71_"><defs><path id="XMLID_72_" d="M131.3 12.4v11h12v31h12v-31h13v-11z"/></defs><clipPath id="XMLID_132_"><use xlink:href="#XMLID_72_" overflow="visible"/></clipPath><g id="XMLID_73_" class="st5"><path id="XMLID_82_" class="st2" d="M130.3 14.4h39.6v-2h-39.6"/><path id="XMLID_81_" class="st2" d="M130.3 19.4h39.6v-2h-39.6"/><path id="XMLID_80_" class="st2" d="M130.3 24.4h39.6v-2h-39.6"/><path id="XMLID_79_" class="st2" d="M130.3 29.4h39.6v-2h-39.6"/><path id="XMLID_78_" class="st2" d="M130.3 34.4h39.6v-2h-39.6"/><path id="XMLID_77_" class="st2" d="M130.3 39.4h39.6v-2h-39.6"/><path id="XMLID_76_" class="st2" d="M130.3 44.4h39.6v-2h-39.6"/><path id="XMLID_75_" class="st2" d="M130.3 49.4h39.6v-2h-39.6"/><path id="XMLID_74_" class="st2" d="M130.3 54.4h39.6v-2h-39.6"/></g></g><g id="XMLID_57_"><defs><path id="XMLID_58_" d="M233.3 12.4l-14.9 42h12.5l1.9-7h13.9l2 7h12.8l-14.9-42h-13.3zm2.6 24.3l3.8-13.5 3.8 13.2-7.6.3z"/></defs><clipPath id="XMLID_133_"><use xlink:href="#XMLID_58_" overflow="visible"/></clipPath><g id="XMLID_61_" class="st6"><path id="XMLID_70_" class="st0" d="M216.8 14.4h45.1v-2h-45.1"/><path id="XMLID_69_" class="st0" d="M216.8 19.4h45.1v-2h-45.1"/><path id="XMLID_68_" class="st0" d="M216.8 24.4h45.1v-2h-45.1"/><path id="XMLID_67_" class="st0" d="M216.8 29.4h45.1v-2h-45.1"/><path id="XMLID_66_" class="st0" d="M216.8 34.4h45.1v-2h-45.1"/><path id="XMLID_65_" class="st0" d="M216.8 39.4h45.1v-2h-45.1"/><path id="XMLID_64_" class="st0" d="M216.8 44.4h45.1v-2h-45.1"/><path id="XMLID_63_" class="st0" d="M216.8 49.4h45.1v-2h-45.1"/><path id="XMLID_62_" class="st0" d="M216.8 54.4h45.1v-2h-45.1"/></g></g><g id="XMLID_45_"><defs><path id="XMLID_46_" d="M208.5 37.2c-.5 2.7-1.4 4.7-2.6 6.1s-3 2.1-5.3 2.1c-2.4 0-4.3-.9-5.6-2.6-1.3-1.7-2-4.9-2-9.6 0-3.8.6-6.5 1.7-8.3 1.5-2.4 3.6-3.5 6.4-3.5 1.2 0 2.3.3 3.3.8s1.8 1.3 2.5 2.3c.4.6.8 1.5 1.2 2.8l10.8-2.6c-1.4-4.4-3.5-7.7-6.4-9.9-2.9-2.1-6.8-3.2-11.8-3.2-6.4 0-11.3 1.9-14.8 5.6s-5.2 9.1-5.2 16c0 5.2 1 9.5 3 12.8 2 3.3 4.3 5.7 7.1 7 2.7 1.3 6.2 2 10.5 2 3.5 0 6.5-.5 8.8-1.6 2.3-1.1 4.2-2.7 5.8-4.8 1.5-2.1 3.4-7.2 3.4-11.2l-10.8-.2z"/></defs><clipPath id="XMLID_134_"><use xlink:href="#XMLID_46_" overflow="visible"/></clipPath><g id="XMLID_47_" class="st7"><path id="XMLID_56_" class="st0" d="M178.5 14.4h42.8v-2h-42.8"/><path id="XMLID_55_" class="st0" d="M178.5 19.4h42.8v-2h-42.8"/><path id="XMLID_54_" class="st0" d="M178.5 24.4h42.8v-2h-42.8"/><path id="XMLID_53_" class="st0" d="M178.5 29.4h42.8v-2h-42.8"/><path id="XMLID_52_" class="st0" d="M178.5 34.4h42.8v-2h-42.8"/><path id="XMLID_51_" class="st0" d="M178.5 39.4h42.8v-2h-42.8"/><path id="XMLID_50_" class="st0" d="M178.5 44.4h42.8v-2h-42.8"/><path id="XMLID_49_" class="st0" d="M178.5 49.4h42.8v-2h-42.8"/><path id="XMLID_48_" class="st0" d="M178.5 54.4h42.8v-2h-42.8"/></g></g><g id="XMLID_33_"><defs><path id="XMLID_34_" d="M277.3 12.4h-13v42h32v-10h-19z"/></defs><clipPath id="XMLID_135_"><use xlink:href="#XMLID_34_" overflow="visible"/></clipPath><g id="XMLID_35_" class="st8"><path id="XMLID_44_" class="st0" d="M263.4 14.4h33.9v-2h-33.9"/><path id="XMLID_43_" class="st0" d="M263.4 19.4h33.9v-2h-33.9"/><path id="XMLID_42_" class="st0" d="M263.4 24.4h33.9v-2h-33.9"/><path id="XMLID_41_" class="st0" d="M263.4 29.4h33.9v-2h-33.9"/><path id="XMLID_40_" class="st0" d="M263.4 34.4h33.9v-2h-33.9"/><path id="XMLID_39_" class="st0" d="M263.4 39.4h33.9v-2h-33.9"/><path id="XMLID_38_" class="st0" d="M263.4 44.4h33.9v-2h-33.9"/><path id="XMLID_37_" class="st0" d="M263.4 49.4h33.9v-2h-33.9"/><path id="XMLID_36_" class="st0" d="M263.4 54.4h33.9v-2h-33.9"/></g></g><g id="XMLID_15_"><defs><path id="XMLID_16_" d="M313.3 44.4v-32h-13v42h32v-10z"/></defs><clipPath id="XMLID_136_"><use xlink:href="#XMLID_16_" overflow="visible"/></clipPath><g id="XMLID_17_" class="st9"><path id="XMLID_32_" class="st0" d="M299.3 14.4h33.9v-2h-33.9"/><path id="XMLID_31_" class="st0" d="M299.3 19.4h33.9v-2h-33.9"/><path id="XMLID_26_" class="st0" d="M299.3 24.4h33.9v-2h-33.9"/><path id="XMLID_25_" class="st0" d="M299.3 29.4h33.9v-2h-33.9"/><path id="XMLID_24_" class="st0" d="M299.3 34.4h33.9v-2h-33.9"/><path id="XMLID_22_" class="st0" d="M299.3 39.4h33.9v-2h-33.9"/><path id="XMLID_21_" class="st0" d="M299.3 44.4h33.9v-2h-33.9"/><path id="XMLID_19_" class="st0" d="M299.3 49.4h33.9v-2h-33.9"/><path id="XMLID_18_" class="st0" d="M299.3 54.4h33.9v-2h-33.9"/></g></g></svg>