<svg xmlns="http://www.w3.org/2000/svg" preserveAspectRatio="xMidYMid" width="100" height="37" viewBox="0 0 100 37"><defs><style>.cls-1{fill:#3d5394;fill-rule:evenodd}</style></defs><path d="M96.85 13.278l-5.264-.023v4.899h-4.59V7.5c0-1.168.944-2.123 2.097-2.123h7.932c1.644 0 2.976 1.348 2.976 3.012v1.712c0 1.759-1.413 3.184-3.151 3.177zm-.674-4.059a.548.548 0 0 0-.545-.551h-4.045v1.549h4.052a.541.541 0 0 0 .538-.544v-.454zm-14.771 6.612h-5.177l-.996 2.323h-3.994l5.569-12.119c.184-.4.601-.658 1.062-.658h2.06c.484 0 .921.274 1.108.696l5.357 12.081H82.4l-.995-2.323zm-2.21-5.467c-.134-.327-.624-.327-.758 0l-1.293 3.144h3.345l-1.294-3.144zM60.05 14.26V9.271c0-2.151 1.723-3.894 3.847-3.894h7.15v3.485h-6.166a.795.795 0 0 0-.791.8v4.207c0 .442.354.801.791.801h6.166v3.484h-7.15c-2.124 0-3.847-1.743-3.847-3.894zm-4.505 3.894h-7.932c-1.154 0-2.097-.955-2.097-2.122V5.377h4.589v4.899l5.265-.022c1.738-.007 3.15 1.417 3.15 3.176v1.713c0 1.663-1.332 3.011-2.975 3.011zm-.85-4.295a.54.54 0 0 0-.537-.545h-4.053v1.549h4.046a.547.547 0 0 0 .544-.551v-.453zm-2.223 4.683h38.942v.387H54.122l-6.694 18.069-13.1-30.04-4.495 11.196h-2.071L35.045.001l12.981 30.302 4.446-11.761zm-35.643-.388l2.11-3.797-5.234-8.593h4.718l2.661 4.732 2.63-4.732h4.589l-6.725 12.39h-4.749zm-6.19 0H8.796v-9.13a.547.547 0 0 0-.543-.55H5.136a.55.55 0 0 0-.547.554v9.126h-4.59V7.306c0-.974.95-1.925 1.913-1.929h9.569c1.048 0 1.905.868 1.905 1.929v10.848h-2.747z" class="cls-1"/></svg>